<svg xmlns="http://www.w3.org/2000/svg" version="1.1" xmlns:xlink="http://www.w3.org/1999/xlink" xmlns:svgjs="http://svgjs.dev/svgjs" width="1440" height="560" preserveAspectRatio="none" viewBox="0 0 1440 560"><g mask="url(&quot;#SvgjsMask1114&quot;)" fill="none"><g mask="url(&quot;#SvgjsMask1115&quot;)"><path d="M1350 270L1314 270M1170 234L1134 234L1098 234L1062 234M1314 234L1278 234L1242 234M1494 270L1458 270L1422 270L1386 270L1350 270L1314 234L1278 198L1242 198L1206 234L1170 234L1134 198" stroke="rgba(23, 56, 210, 1)" stroke-width="6"></path><path d="M1125 198 a9 9 0 1 0 18 0 a9 9 0 1 0 -18 0zM1305 270 a9 9 0 1 0 18 0 a9 9 0 1 0 -18 0zM1053 234 a9 9 0 1 0 18 0 a9 9 0 1 0 -18 0zM1233 234 a9 9 0 1 0 18 0 a9 9 0 1 0 -18 0z" fill="rgba(23, 56, 210, 1)"></path><path d="M1206 306L1170 270L1134 270L1098 270M1170 306L1134 342M1098 306L1062 342L1026 342M1494 306L1458 306L1422 306L1386 306L1350 306L1314 306L1278 306L1242 306L1206 306L1170 306L1134 306L1098 306L1062 306L1026 306L990 342" stroke="rgba(223, 224, 226, 1)" stroke-width="6"></path><path d="M981 342 a9 9 0 1 0 18 0 a9 9 0 1 0 -18 0zM1089 270 a9 9 0 1 0 18 0 a9 9 0 1 0 -18 0zM1125 342 a9 9 0 1 0 18 0 a9 9 0 1 0 -18 0zM1017 342 a9 9 0 1 0 18 0 a9 9 0 1 0 -18 0z" fill="rgba(223, 224, 226, 1)"></path><path d="M954 162L918 198L882 198L846 198L810 198L774 198L738 198L702 198M810 126L774 162L738 162L702 162L666 162M1206 162L1170 198M1098 162L1062 198M1026 162L990 198L954 198L918 234M1494 234L1458 234L1422 234L1386 234L1350 234L1314 198L1278 162L1242 162L1206 162L1170 162L1134 162L1098 162L1062 162L1026 162L990 162L954 162L918 162L882 162L846 162L810 126L774 126" stroke="rgba(223, 224, 226, 1)" stroke-width="6"></path><path d="M765 126 a9 9 0 1 0 18 0 a9 9 0 1 0 -18 0zM693 198 a9 9 0 1 0 18 0 a9 9 0 1 0 -18 0zM657 162 a9 9 0 1 0 18 0 a9 9 0 1 0 -18 0zM1161 198 a9 9 0 1 0 18 0 a9 9 0 1 0 -18 0zM1053 198 a9 9 0 1 0 18 0 a9 9 0 1 0 -18 0zM909 234 a9 9 0 1 0 18 0 a9 9 0 1 0 -18 0z" fill="rgba(223, 224, 226, 1)"></path><path d="M1278 342L1242 378L1206 378L1170 378M1314 342L1278 378L1242 414M1494 342L1458 342L1422 342L1386 342L1350 342L1314 342L1278 342L1242 342L1206 342" stroke="rgba(23, 56, 210, 1)" stroke-width="6"></path><path d="M1197 342 a9 9 0 1 0 18 0 a9 9 0 1 0 -18 0zM1161 378 a9 9 0 1 0 18 0 a9 9 0 1 0 -18 0zM1233 414 a9 9 0 1 0 18 0 a9 9 0 1 0 -18 0z" fill="rgba(23, 56, 210, 1)"></path><path d="M1494 198L1458 198L1422 198L1386 198L1350 198L1314 162L1278 126L1242 126L1206 126L1170 126L1134 126L1098 126L1062 126L1026 126" stroke="rgba(23, 56, 210, 1)" stroke-width="6"></path><path d="M1017 126 a9 9 0 1 0 18 0 a9 9 0 1 0 -18 0z" fill="rgba(23, 56, 210, 1)"></path><path d="M1386 378L1350 414L1314 414M1422 378L1386 414M1494 378L1458 378L1422 378L1386 378L1350 378" stroke="rgba(23, 56, 210, 1)" stroke-width="6"></path><path d="M1341 378 a9 9 0 1 0 18 0 a9 9 0 1 0 -18 0zM1305 414 a9 9 0 1 0 18 0 a9 9 0 1 0 -18 0zM1377 414 a9 9 0 1 0 18 0 a9 9 0 1 0 -18 0z" fill="rgba(23, 56, 210, 1)"></path><path d="M918 90L882 126L846 126M954 90L918 126M1386 162L1350 126L1314 90M1494 162L1458 162L1422 162L1386 162L1350 162L1314 126L1278 90L1242 90L1206 90L1170 90L1134 90L1098 90L1062 90L1026 90L990 90L954 90L918 90L882 90L846 90L810 90" stroke="rgba(23, 56, 210, 1)" stroke-width="6"></path><path d="M801 90 a9 9 0 1 0 18 0 a9 9 0 1 0 -18 0zM837 126 a9 9 0 1 0 18 0 a9 9 0 1 0 -18 0zM909 126 a9 9 0 1 0 18 0 a9 9 0 1 0 -18 0zM1305 90 a9 9 0 1 0 18 0 a9 9 0 1 0 -18 0z" fill="rgba(23, 56, 210, 1)"></path></g></g><defs><mask id="SvgjsMask1114"><rect width="1440" height="560" fill="#ffffff"></rect></mask><mask id="SvgjsMask1115"><rect width="1440" height="560" fill="white"></rect><path d="M1129.5 198 a4.5 4.5 0 1 0 9 0 a4.5 4.5 0 1 0 -9 0zM1309.5 270 a4.5 4.5 0 1 0 9 0 a4.5 4.5 0 1 0 -9 0zM1057.5 234 a4.5 4.5 0 1 0 9 0 a4.5 4.5 0 1 0 -9 0zM1237.5 234 a4.5 4.5 0 1 0 9 0 a4.5 4.5 0 1 0 -9 0z" fill="black"></path><path d="M985.5 342 a4.5 4.5 0 1 0 9 0 a4.5 4.5 0 1 0 -9 0zM1093.5 270 a4.5 4.5 0 1 0 9 0 a4.5 4.5 0 1 0 -9 0zM1129.5 342 a4.5 4.5 0 1 0 9 0 a4.5 4.5 0 1 0 -9 0zM1021.5 342 a4.5 4.5 0 1 0 9 0 a4.5 4.5 0 1 0 -9 0z" fill="black"></path><path d="M769.5 126 a4.5 4.5 0 1 0 9 0 a4.5 4.5 0 1 0 -9 0zM697.5 198 a4.5 4.5 0 1 0 9 0 a4.5 4.5 0 1 0 -9 0zM661.5 162 a4.5 4.5 0 1 0 9 0 a4.5 4.5 0 1 0 -9 0zM1165.5 198 a4.5 4.5 0 1 0 9 0 a4.5 4.5 0 1 0 -9 0zM1057.5 198 a4.5 4.5 0 1 0 9 0 a4.5 4.5 0 1 0 -9 0zM913.5 234 a4.5 4.5 0 1 0 9 0 a4.5 4.5 0 1 0 -9 0z" fill="black"></path><path d="M1201.5 342 a4.5 4.5 0 1 0 9 0 a4.5 4.5 0 1 0 -9 0zM1165.5 378 a4.5 4.5 0 1 0 9 0 a4.5 4.5 0 1 0 -9 0zM1237.5 414 a4.5 4.5 0 1 0 9 0 a4.5 4.5 0 1 0 -9 0z" fill="black"></path><path d="M1021.5 126 a4.5 4.5 0 1 0 9 0 a4.5 4.5 0 1 0 -9 0z" fill="black"></path><path d="M1345.5 378 a4.5 4.5 0 1 0 9 0 a4.5 4.5 0 1 0 -9 0zM1309.5 414 a4.5 4.5 0 1 0 9 0 a4.5 4.5 0 1 0 -9 0zM1381.5 414 a4.5 4.5 0 1 0 9 0 a4.5 4.5 0 1 0 -9 0z" fill="black"></path><path d="M805.5 90 a4.5 4.5 0 1 0 9 0 a4.5 4.5 0 1 0 -9 0zM841.5 126 a4.5 4.5 0 1 0 9 0 a4.5 4.5 0 1 0 -9 0zM913.5 126 a4.5 4.5 0 1 0 9 0 a4.5 4.5 0 1 0 -9 0zM1309.5 90 a4.5 4.5 0 1 0 9 0 a4.5 4.5 0 1 0 -9 0z" fill="black"></path></mask></defs></svg>